<mxfile host="app.diagrams.net" modified="2023-05-13T21:37:05.477Z" agent="Mozilla/5.0 (Windows NT 10.0; Win64; x64) AppleWebKit/537.36 (KHTML, like Gecko) Chrome/113.0.0.0 Safari/537.36" etag="yQx9xPY6NLTENMSwh8N_" version="21.3.0" type="github">
  <diagram name="Page-1" id="kZkg844usHoCa2LbAILA">
    <mxGraphModel dx="2277" dy="927" grid="1" gridSize="10" guides="1" tooltips="1" connect="1" arrows="1" fold="1" page="1" pageScale="1" pageWidth="850" pageHeight="1100" math="0" shadow="0">
      <root>
        <mxCell id="0" />
        <mxCell id="1" parent="0" />
        <mxCell id="RGVGV5z_fkdqO5G-Q9nY-2" value="&lt;p style=&quot;margin:0px;margin-top:4px;text-align:center;text-decoration:underline;&quot;&gt;&lt;b&gt;fpu&lt;/b&gt;&lt;/p&gt;&lt;hr&gt;&lt;p style=&quot;margin:0px;margin-left:8px;&quot;&gt;&lt;b&gt;Parameters:&lt;/b&gt;&lt;/p&gt;&lt;p style=&quot;margin:0px;margin-left:8px;&quot;&gt;INF [31]&lt;/p&gt;&lt;p style=&quot;margin:0px;margin-left:8px;&quot;&gt;QNAN [31]&lt;/p&gt;&lt;p style=&quot;margin:0px;margin-left:8px;&quot;&gt;SNAN [31]&lt;/p&gt;&lt;p style=&quot;margin:0px;margin-left:8px;&quot;&gt;&lt;br&gt;&lt;/p&gt;&lt;p style=&quot;margin:0px;margin-left:8px;&quot;&gt;&lt;b&gt;Inputs:&lt;/b&gt;&lt;/p&gt;&lt;p style=&quot;margin:0px;margin-left:8px;&quot;&gt;clk&lt;/p&gt;&lt;p style=&quot;margin:0px;margin-left:8px;&quot;&gt;rmode [2]&lt;/p&gt;&lt;p style=&quot;margin:0px;margin-left:8px;&quot;&gt;fpu_op [3]&lt;/p&gt;&lt;p style=&quot;margin:0px;margin-left:8px;&quot;&gt;opa [32]&lt;/p&gt;&lt;p style=&quot;margin:0px;margin-left:8px;&quot;&gt;opb [32]&lt;/p&gt;&lt;p style=&quot;margin:0px;margin-left:8px;&quot;&gt;out [32]&lt;/p&gt;&lt;p style=&quot;margin:0px;margin-left:8px;&quot;&gt;&lt;br&gt;&lt;/p&gt;&lt;p style=&quot;margin:0px;margin-left:8px;&quot;&gt;&lt;b&gt;Outputs&lt;/b&gt;:&lt;/p&gt;&lt;p style=&quot;margin:0px;margin-left:8px;&quot;&gt;inf&lt;/p&gt;&lt;p style=&quot;margin:0px;margin-left:8px;&quot;&gt;snan&lt;/p&gt;&lt;p style=&quot;margin:0px;margin-left:8px;&quot;&gt;qnan&lt;/p&gt;&lt;p style=&quot;margin:0px;margin-left:8px;&quot;&gt;overflow&lt;/p&gt;&lt;p style=&quot;margin:0px;margin-left:8px;&quot;&gt;underflow&lt;/p&gt;&lt;p style=&quot;margin:0px;margin-left:8px;&quot;&gt;zero&lt;/p&gt;&lt;p style=&quot;margin:0px;margin-left:8px;&quot;&gt;div_by_zero&lt;/p&gt;" style="verticalAlign=top;align=left;overflow=fill;fontSize=12;fontFamily=Helvetica;html=1;whiteSpace=wrap;" vertex="1" parent="1">
          <mxGeometry x="-30" y="480" width="170" height="350" as="geometry" />
        </mxCell>
        <mxCell id="RGVGV5z_fkdqO5G-Q9nY-3" value="&lt;p style=&quot;margin:0px;margin-top:4px;text-align:center;text-decoration:underline;&quot;&gt;&lt;b&gt;post_norm&lt;/b&gt;&lt;/p&gt;&lt;hr&gt;&lt;p style=&quot;margin:0px;margin-left:8px;&quot;&gt;&lt;b&gt;Inputs&lt;/b&gt;:&lt;/p&gt;&lt;p style=&quot;margin:0px;margin-left:8px;&quot;&gt;clk&lt;/p&gt;&lt;p style=&quot;margin:0px;margin-left:8px;&quot;&gt;fpu_op[3]&lt;/p&gt;&lt;p style=&quot;margin:0px;margin-left:8px;&quot;&gt;opas&lt;/p&gt;&lt;p style=&quot;margin:0px;margin-left:8px;&quot;&gt;sign&lt;/p&gt;&lt;p style=&quot;margin:0px;margin-left:8px;&quot;&gt;rmode [2]&lt;/p&gt;&lt;p style=&quot;margin:0px;margin-left:8px;&quot;&gt;fract_in [48]&lt;/p&gt;&lt;p style=&quot;margin:0px;margin-left:8px;&quot;&gt;exp_ovf [2]&lt;/p&gt;&lt;p style=&quot;margin:0px;margin-left:8px;&quot;&gt;opa_dn&amp;nbsp;&lt;/p&gt;&lt;p style=&quot;margin:0px;margin-left:8px;&quot;&gt;opb_dn&lt;/p&gt;&lt;p style=&quot;margin:0px;margin-left:8px;&quot;&gt;rem_00&lt;/p&gt;&lt;p style=&quot;margin:0px;margin-left:8px;&quot;&gt;div_opa_ldz&lt;/p&gt;&lt;p style=&quot;margin:0px;margin-left:8px;&quot;&gt;output_zero&lt;/p&gt;&lt;p style=&quot;margin:0px;margin-left:8px;&quot;&gt;&lt;br&gt;&lt;/p&gt;&lt;p style=&quot;margin:0px;margin-left:8px;&quot;&gt;&lt;br&gt;&lt;/p&gt;&lt;p style=&quot;margin:0px;margin-left:8px;&quot;&gt;&lt;b&gt;Outputs:&lt;/b&gt;&lt;/p&gt;&lt;p style=&quot;border-color: var(--border-color); margin: 0px 0px 0px 8px;&quot;&gt;out [31]&lt;/p&gt;&lt;p style=&quot;border-color: var(--border-color); margin: 0px 0px 0px 8px;&quot;&gt;ine&lt;/p&gt;&lt;p style=&quot;border-color: var(--border-color); margin: 0px 0px 0px 8px;&quot;&gt;overflow&lt;/p&gt;&lt;p style=&quot;border-color: var(--border-color); margin: 0px 0px 0px 8px;&quot;&gt;underflow&lt;/p&gt;&lt;p style=&quot;border-color: var(--border-color); margin: 0px 0px 0px 8px;&quot;&gt;f2i_out_sign&lt;/p&gt;&lt;p style=&quot;margin:0px;margin-left:8px;&quot;&gt;&lt;br&gt;&lt;/p&gt;&lt;p style=&quot;margin:0px;margin-left:8px;&quot;&gt;&lt;br&gt;&lt;/p&gt;&lt;p style=&quot;margin:0px;margin-left:8px;&quot;&gt;&lt;br&gt;&lt;/p&gt;" style="verticalAlign=top;align=left;overflow=fill;fontSize=12;fontFamily=Helvetica;html=1;whiteSpace=wrap;" vertex="1" parent="1">
          <mxGeometry x="190" y="480" width="160" height="360" as="geometry" />
        </mxCell>
        <mxCell id="RGVGV5z_fkdqO5G-Q9nY-4" value="&lt;p style=&quot;margin:0px;margin-top:4px;text-align:center;text-decoration:underline;&quot;&gt;&lt;b&gt;pre_norm_fmul&lt;/b&gt;&lt;/p&gt;&lt;hr&gt;&lt;p style=&quot;margin:0px;margin-left:8px;&quot;&gt;&lt;b&gt;Inputs:&lt;/b&gt;&lt;/p&gt;&lt;p style=&quot;margin:0px;margin-left:8px;&quot;&gt;clk&lt;/p&gt;&lt;p style=&quot;margin:0px;margin-left:8px;&quot;&gt;fpu_op [3]&lt;/p&gt;&lt;p style=&quot;margin:0px;margin-left:8px;&quot;&gt;opa [32]&lt;/p&gt;&lt;p style=&quot;margin:0px;margin-left:8px;&quot;&gt;opb [32]&lt;/p&gt;&lt;p style=&quot;margin:0px;margin-left:8px;&quot;&gt;&lt;br&gt;&lt;/p&gt;&lt;p style=&quot;margin:0px;margin-left:8px;&quot;&gt;&lt;b&gt;Outputs:&lt;/b&gt;&lt;/p&gt;&lt;p style=&quot;margin:0px;margin-left:8px;&quot;&gt;fracta [24]&lt;/p&gt;&lt;p style=&quot;margin:0px;margin-left:8px;&quot;&gt;fractb [24]&lt;/p&gt;&lt;p style=&quot;margin:0px;margin-left:8px;&quot;&gt;exp_out [8]&lt;/p&gt;&lt;p style=&quot;margin:0px;margin-left:8px;&quot;&gt;sign&lt;/p&gt;&lt;p style=&quot;margin:0px;margin-left:8px;&quot;&gt;sign_exe&lt;/p&gt;&lt;p style=&quot;margin:0px;margin-left:8px;&quot;&gt;inf&lt;/p&gt;&lt;p style=&quot;margin:0px;margin-left:8px;&quot;&gt;exp_ovf&lt;/p&gt;&lt;p style=&quot;margin:0px;margin-left:8px;&quot;&gt;underflow&lt;/p&gt;" style="verticalAlign=top;align=left;overflow=fill;fontSize=12;fontFamily=Helvetica;html=1;whiteSpace=wrap;" vertex="1" parent="1">
          <mxGeometry x="400" y="480" width="160" height="260" as="geometry" />
        </mxCell>
        <mxCell id="RGVGV5z_fkdqO5G-Q9nY-5" value="&lt;p style=&quot;margin:0px;margin-top:4px;text-align:center;text-decoration:underline;&quot;&gt;&lt;b&gt;pre_norm&lt;/b&gt;&lt;/p&gt;&lt;hr&gt;&lt;p style=&quot;margin:0px;margin-left:8px;&quot;&gt;&lt;b&gt;Inputs:&lt;/b&gt;&lt;br&gt;clk&lt;/p&gt;&lt;p style=&quot;margin:0px;margin-left:8px;&quot;&gt;rmode [2]&lt;/p&gt;&lt;p style=&quot;margin:0px;margin-left:8px;&quot;&gt;add&lt;/p&gt;&lt;p style=&quot;margin:0px;margin-left:8px;&quot;&gt;opa [32]&lt;/p&gt;&lt;p style=&quot;margin:0px;margin-left:8px;&quot;&gt;opb [32]&lt;/p&gt;&lt;p style=&quot;margin:0px;margin-left:8px;&quot;&gt;opa_nan&lt;/p&gt;&lt;p style=&quot;margin:0px;margin-left:8px;&quot;&gt;opb_nan&lt;/p&gt;&lt;p style=&quot;margin:0px;margin-left:8px;&quot;&gt;&lt;br&gt;&lt;/p&gt;&lt;p style=&quot;margin:0px;margin-left:8px;&quot;&gt;&lt;b&gt;Outputs:&lt;/b&gt;&lt;/p&gt;&lt;p style=&quot;margin:0px;margin-left:8px;&quot;&gt;fracta_out [27]&lt;/p&gt;&lt;p style=&quot;margin:0px;margin-left:8px;&quot;&gt;fractb_out [27]&lt;/p&gt;&lt;p style=&quot;margin:0px;margin-left:8px;&quot;&gt;exp_dn_out [8]&lt;/p&gt;&lt;p style=&quot;margin:0px;margin-left:8px;&quot;&gt;sign&lt;/p&gt;&lt;p style=&quot;margin:0px;margin-left:8px;&quot;&gt;nan_sign&lt;/p&gt;&lt;p style=&quot;margin:0px;margin-left:8px;&quot;&gt;result_zero_sign&lt;/p&gt;&lt;p style=&quot;margin:0px;margin-left:8px;&quot;&gt;fasu_op&lt;/p&gt;" style="verticalAlign=top;align=left;overflow=fill;fontSize=12;fontFamily=Helvetica;html=1;whiteSpace=wrap;" vertex="1" parent="1">
          <mxGeometry x="630" y="480" width="200" height="290" as="geometry" />
        </mxCell>
        <mxCell id="RGVGV5z_fkdqO5G-Q9nY-6" value="&lt;p style=&quot;margin:0px;margin-top:4px;text-align:center;text-decoration:underline;&quot;&gt;&lt;b&gt;primitives&lt;/b&gt;&lt;/p&gt;&lt;hr&gt;&lt;p style=&quot;margin:0px;margin-left:8px;&quot;&gt;&lt;br&gt;&lt;/p&gt;" style="verticalAlign=top;align=left;overflow=fill;fontSize=12;fontFamily=Helvetica;html=1;whiteSpace=wrap;" vertex="1" parent="1">
          <mxGeometry x="910" y="480" width="240" height="390" as="geometry" />
        </mxCell>
        <mxCell id="RGVGV5z_fkdqO5G-Q9nY-8" value="&lt;p style=&quot;margin:0px;margin-top:4px;text-align:center;text-decoration:underline;&quot;&gt;&lt;b&gt;add_sub27&lt;/b&gt;&lt;/p&gt;&lt;hr&gt;&lt;p style=&quot;margin:0px;margin-left:8px;&quot;&gt;&lt;b&gt;Inputs&lt;/b&gt;:&lt;/p&gt;&lt;p style=&quot;margin:0px;margin-left:8px;&quot;&gt;add&lt;/p&gt;&lt;p style=&quot;margin:0px;margin-left:8px;&quot;&gt;opa [27]&lt;/p&gt;&lt;p style=&quot;margin:0px;margin-left:8px;&quot;&gt;opb [27]&lt;/p&gt;&lt;p style=&quot;margin:0px;margin-left:8px;&quot;&gt;&lt;br&gt;&lt;/p&gt;&lt;p style=&quot;margin:0px;margin-left:8px;&quot;&gt;&lt;b&gt;Outputs&lt;/b&gt;:&lt;/p&gt;&lt;p style=&quot;margin:0px;margin-left:8px;&quot;&gt;sum [27]&lt;/p&gt;&lt;p style=&quot;margin:0px;margin-left:8px;&quot;&gt;co&lt;/p&gt;" style="verticalAlign=top;align=left;overflow=fill;fontSize=12;fontFamily=Helvetica;html=1;whiteSpace=wrap;" vertex="1" parent="1">
          <mxGeometry x="930" y="530" width="70" height="150" as="geometry" />
        </mxCell>
        <mxCell id="RGVGV5z_fkdqO5G-Q9nY-9" value="&lt;p style=&quot;margin:0px;margin-top:4px;text-align:center;text-decoration:underline;&quot;&gt;&lt;b&gt;mul_r2&lt;/b&gt;&lt;/p&gt;&lt;hr&gt;&lt;p style=&quot;margin:0px;margin-left:8px;&quot;&gt;&lt;b&gt;Inputs&lt;/b&gt;:&lt;/p&gt;&lt;p style=&quot;margin:0px;margin-left:8px;&quot;&gt;clk&lt;/p&gt;&lt;p style=&quot;margin:0px;margin-left:8px;&quot;&gt;opa [24]&lt;/p&gt;&lt;p style=&quot;margin:0px;margin-left:8px;&quot;&gt;opb [24]&lt;/p&gt;&lt;p style=&quot;margin:0px;margin-left:8px;&quot;&gt;&lt;br&gt;&lt;/p&gt;&lt;p style=&quot;margin:0px;margin-left:8px;&quot;&gt;&lt;b&gt;Outputs&lt;/b&gt;:&lt;/p&gt;&lt;p style=&quot;margin:0px;margin-left:8px;&quot;&gt;prod [48]&lt;/p&gt;" style="verticalAlign=top;align=left;overflow=fill;fontSize=12;fontFamily=Helvetica;html=1;whiteSpace=wrap;" vertex="1" parent="1">
          <mxGeometry x="1060" y="530" width="70" height="150" as="geometry" />
        </mxCell>
        <mxCell id="RGVGV5z_fkdqO5G-Q9nY-10" value="&lt;p style=&quot;margin:0px;margin-top:4px;text-align:center;text-decoration:underline;&quot;&gt;&lt;b&gt;div_r2&lt;/b&gt;&lt;/p&gt;&lt;hr&gt;&lt;p style=&quot;margin:0px;margin-left:8px;&quot;&gt;&lt;b&gt;Inputs&lt;/b&gt;:&lt;/p&gt;&lt;p style=&quot;margin:0px;margin-left:8px;&quot;&gt;clk&lt;/p&gt;&lt;p style=&quot;margin:0px;margin-left:8px;&quot;&gt;opa [50]&lt;/p&gt;&lt;p style=&quot;margin:0px;margin-left:8px;&quot;&gt;opb [24]&lt;/p&gt;&lt;p style=&quot;margin:0px;margin-left:8px;&quot;&gt;&lt;br&gt;&lt;/p&gt;&lt;p style=&quot;margin:0px;margin-left:8px;&quot;&gt;&lt;b&gt;Outputs&lt;/b&gt;:&lt;/p&gt;&lt;p style=&quot;margin:0px;margin-left:8px;&quot;&gt;quo [50]&lt;/p&gt;&lt;p style=&quot;margin:0px;margin-left:8px;&quot;&gt;rem [50]&lt;/p&gt;" style="verticalAlign=top;align=left;overflow=fill;fontSize=12;fontFamily=Helvetica;html=1;whiteSpace=wrap;" vertex="1" parent="1">
          <mxGeometry x="995" y="700" width="70" height="150" as="geometry" />
        </mxCell>
      </root>
    </mxGraphModel>
  </diagram>
</mxfile>
